# Blender v2.78 (sub 0) OBJ File: ''
# www.blender.org
mtllib oar.mtl
o Cube.001
v -0.300000 0.100000 -7.000000
v -0.300000 -0.100000 -7.000000
v -0.300000 0.100000 -8.200000
v -0.300000 -0.100000 -8.200000
v 0.300000 0.100000 -7.000000
v 0.300000 -0.100000 -7.000000
v 0.300000 0.100000 -8.200000
v 0.300000 -0.100000 -8.200000
v -0.100000 -0.100000 -1.000000
v -0.100000 0.100000 -1.000000
v -0.100000 -0.100000 -7.000000
v -0.100000 0.100000 -7.000000
v 0.100000 -0.100000 -1.000000
v 0.100000 0.100000 -1.000000
v 0.100000 -0.100000 -7.000000
v 0.100000 0.100000 -7.000000
v -0.300000 0.100000 0.000000
v -0.300000 -0.100000 0.000000
v -0.300000 0.100000 -1.200000
v -0.300000 -0.100000 -1.200000
v 0.300000 0.100000 0.000000
v 0.300000 -0.100000 0.000000
v 0.300000 0.100000 -1.200000
v 0.300000 -0.100000 -1.200000
vt 0.6471 0.4000
vt 0.8235 0.2000
vt 0.8235 0.4000
vt 0.6471 0.2000
vt 0.8235 0.0000
vt 0.4706 0.4000
vt 0.6471 0.2000
vt 0.6471 0.4000
vt 0.6471 0.4000
vt 0.8235 0.6000
vt 0.6471 0.6000
vt 0.8235 0.4000
vt 1.0000 0.2000
vt 1.0000 0.4000
vt 0.6471 1.0000
vt 0.4706 0.8000
vt 0.6471 0.8000
vt 0.1765 0.0000
vt 0.0000 1.0000
vt 0.0000 0.0000
vt 0.8824 0.6000
vt 0.8235 0.4000
vt 0.8824 0.4000
vt 0.3529 0.0000
vt 0.1765 1.0000
vt 0.1765 0.0000
vt 0.8824 0.8000
vt 0.8235 0.6000
vt 0.8824 0.6000
vt 0.4706 0.0000
vt 0.4118 1.0000
vt 0.4118 0.0000
vt 0.3529 1.0000
vt 0.4118 0.0000
vt 0.4118 1.0000
vt 0.4706 0.8000
vt 0.6471 0.6000
vt 0.6471 0.8000
vt 0.6471 0.6000
vt 0.4706 0.4000
vt 0.6471 0.4000
vt 0.4706 0.2000
vt 0.6471 0.0000
vt 0.6471 0.2000
vt 0.6471 0.6000
vt 0.8235 0.8000
vt 0.6471 0.8000
vt 1.0000 0.0000
vt 0.8235 0.2000
vt 0.8235 0.0000
vt 0.6471 1.0000
vt 0.8235 0.8000
vt 0.8235 1.0000
vt 0.6471 0.0000
vt 0.4706 0.2000
vt 0.8235 0.4000
vt 0.8235 0.2000
vt 0.4706 1.0000
vt 0.1765 1.0000
vt 0.8235 0.6000
vt 0.3529 1.0000
vt 0.8235 0.8000
vt 0.4706 1.0000
vt 0.3529 0.0000
vt 0.4706 0.6000
vt 0.4706 0.6000
vt 0.4706 0.0000
vt 0.8235 0.6000
vt 1.0000 0.2000
vt 0.6471 0.8000
vn 1.0000 0.0000 0.0000
vn 0.0000 0.0000 1.0000
vn -1.0000 0.0000 0.0000
vn 0.0000 0.0000 -1.0000
vn 0.0000 -1.0000 0.0000
vn 0.0000 1.0000 0.0000
usemtl None
s off
f 2/1/1 3/2/1 1/3/1
f 4/4/2 7/5/2 3/2/2
f 8/6/3 5/7/3 7/8/3
f 6/9/4 1/10/4 5/11/4
f 7/12/5 1/13/5 3/14/5
f 4/15/6 6/16/6 8/17/6
f 10/18/3 11/19/3 9/20/3
f 12/21/4 15/22/4 11/23/4
f 16/24/1 13/25/1 15/26/1
f 14/27/2 9/28/2 13/29/2
f 15/30/5 9/31/5 11/32/5
f 12/33/6 14/34/6 16/35/6
f 18/36/1 19/37/1 17/38/1
f 20/39/2 23/40/2 19/41/2
f 24/42/3 21/43/3 23/44/3
f 22/45/4 17/46/4 21/47/4
f 23/48/5 17/49/5 19/50/5
f 20/51/6 22/52/6 24/53/6
f 2/1/1 4/4/1 3/2/1
f 4/4/2 8/54/2 7/5/2
f 8/6/3 6/55/3 5/7/3
f 6/9/4 2/56/4 1/10/4
f 7/12/5 5/57/5 1/13/5
f 4/15/6 2/58/6 6/16/6
f 10/18/3 12/59/3 11/19/3
f 12/21/4 16/60/4 15/22/4
f 16/24/1 14/61/1 13/25/1
f 14/27/2 10/62/2 9/28/2
f 15/30/5 13/63/5 9/31/5
f 12/33/6 10/64/6 14/34/6
f 18/36/1 20/65/1 19/37/1
f 20/39/2 24/66/2 23/40/2
f 24/42/3 22/67/3 21/43/3
f 22/45/4 18/68/4 17/46/4
f 23/48/5 21/69/5 17/49/5
f 20/51/6 18/70/6 22/52/6
