# Blender v2.78 (sub 0) OBJ File: ''
# www.blender.org
mtllib propeller.mtl
o Cylinder
v 0.000000 -0.300000 0.090000
v 0.000000 -0.300000 -0.090000
v 0.058527 -0.294236 0.090000
v 0.058527 -0.294236 -0.090000
v 0.114805 -0.277164 0.090000
v 0.114805 -0.277164 -0.090000
v 0.166671 -0.249441 0.090000
v 0.166671 -0.249441 -0.090000
v 0.212132 -0.212132 0.090000
v 0.212132 -0.212132 -0.090000
v 0.249441 -0.166671 0.090000
v 0.249441 -0.166671 -0.090000
v 0.277164 -0.114805 0.090000
v 0.277164 -0.114805 -0.090000
v 0.294236 -0.058527 0.090000
v 0.294236 -0.058527 -0.090000
v 0.300000 -0.000000 0.090000
v 0.300000 -0.000000 -0.090000
v 0.294236 0.058527 0.090000
v 0.294236 0.058527 -0.090000
v 0.277164 0.114805 0.090000
v 0.277164 0.114805 -0.090000
v 0.249441 0.166671 0.090000
v 0.249441 0.166671 -0.090000
v 0.212132 0.212132 0.090000
v 0.212132 0.212132 -0.090000
v 0.166671 0.249441 0.090000
v 0.166671 0.249441 -0.090000
v 0.114805 0.277164 0.090000
v 0.114805 0.277164 -0.090000
v 0.058527 0.294236 0.090000
v 0.058527 0.294236 -0.090000
v -0.000000 0.300000 0.090000
v -0.000000 0.300000 -0.090000
v -0.058527 0.294236 0.090000
v -0.058527 0.294236 -0.090000
v -0.114805 0.277164 0.090000
v -0.114805 0.277164 -0.090000
v -0.166671 0.249441 0.090000
v -0.166671 0.249441 -0.090000
v -0.212132 0.212132 0.090000
v -0.212132 0.212132 -0.090000
v -0.249441 0.166671 0.090000
v -0.249441 0.166671 -0.090000
v -0.277164 0.114805 0.090000
v -0.277164 0.114805 -0.090000
v -0.294236 0.058527 0.090000
v -0.294236 0.058527 -0.090000
v -0.300000 -0.000000 0.090000
v -0.300000 -0.000000 -0.090000
v -0.294236 -0.058527 0.090000
v -0.294236 -0.058527 -0.090000
v -0.277164 -0.114805 0.090000
v -0.277164 -0.114805 -0.090000
v -0.249441 -0.166671 0.090000
v -0.249441 -0.166671 -0.090000
v -0.212132 -0.212132 0.090000
v -0.212132 -0.212132 -0.090000
v -0.166671 -0.249441 0.090000
v -0.166671 -0.249441 -0.090000
v -0.114805 -0.277164 0.090000
v -0.114805 -0.277164 -0.090000
v -0.058527 -0.294236 0.090000
v -0.058527 -0.294236 -0.090000
v -0.198362 0.000000 -0.032445
v -0.198362 2.000000 -0.032445
v -0.188009 0.000000 -0.071082
v -0.188009 2.000000 -0.071082
v 0.188009 -0.000000 0.071082
v 0.188009 2.000000 0.071082
v 0.198362 -0.000000 0.032445
v 0.198362 2.000000 0.032445
v -0.188009 -2.000000 0.071082
v -0.188009 -0.000000 0.071082
v -0.198362 -2.000000 0.032445
v -0.198362 -0.000000 0.032445
v 0.198362 -2.000000 -0.032445
v 0.198362 0.000000 -0.032445
v 0.188009 -2.000000 -0.071082
v 0.188009 0.000000 -0.071082
v 0.000000 0.198361 -0.032445
v 2.000000 0.198362 -0.032445
v 0.000000 0.188009 -0.071082
v 2.000000 0.188009 -0.071082
v 0.000000 -0.188009 0.071082
v 2.000000 -0.188009 0.071082
v 0.000000 -0.198362 0.032445
v 2.000000 -0.198361 0.032445
v -2.000000 0.188009 0.071082
v 0.000000 0.188009 0.071082
v -2.000000 0.198361 0.032445
v 0.000000 0.198362 0.032445
v -2.000000 -0.198362 -0.032445
v 0.000000 -0.198361 -0.032445
v -2.000000 -0.188009 -0.071082
v 0.000000 -0.188009 -0.071082
vt 0.5526 0.7093
vt 0.5378 0.6104
vt 0.5526 0.6093
vt 0.5378 0.7103
vt 0.5236 0.6136
vt 0.5236 0.7135
vt 0.5105 0.6188
vt 0.2563 0.6500
vt 0.2469 0.5000
vt 0.2563 0.5000
vt 0.2469 0.6500
vt 0.2354 0.5000
vt 0.2354 0.6500
vt 0.2224 0.5000
vt 0.2224 0.6500
vt 0.2082 0.5000
vt 0.2082 0.6500
vt 0.1934 0.5000
vt 0.1934 0.6500
vt 0.1787 0.5000
vt 0.1787 0.6500
vt 0.1645 0.5000
vt 0.1645 0.6500
vt 0.1514 0.5000
vt 0.1514 0.6500
vt 0.1400 0.5000
vt 0.1400 0.6500
vt 0.1306 0.5000
vt 0.5105 0.5094
vt 0.5236 0.6042
vt 0.5105 0.6093
vt 0.5236 0.5043
vt 0.5378 0.6010
vt 0.5378 0.5011
vt 0.5526 0.5999
vt 0.5526 0.5000
vt 0.5673 0.6010
vt 0.5673 0.5011
vt 0.5815 0.6042
vt 0.5815 0.5043
vt 0.5946 0.6093
vt 0.0000 0.5000
vt 0.0094 0.6500
vt 0.0000 0.6500
vt 0.0094 0.5000
vt 0.0209 0.6500
vt 0.0209 0.5000
vt 0.0339 0.6500
vt 0.0339 0.5000
vt 0.0481 0.6500
vt 0.0481 0.5000
vt 0.0629 0.6500
vt 0.0629 0.5000
vt 0.0776 0.6500
vt 0.0776 0.5000
vt 0.0918 0.6500
vt 0.0918 0.5000
vt 0.1049 0.6500
vt 0.1049 0.5000
vt 0.1163 0.6500
vt 0.1163 0.5000
vt 0.1257 0.6500
vt 0.5946 0.7187
vt 0.5815 0.6136
vt 0.5946 0.6188
vt 0.3709 0.5996
vt 0.4086 0.5041
vt 0.4414 0.6455
vt 0.5815 0.7135
vt 0.5673 0.6104
vt 0.5673 0.7103
vt 0.2585 0.5934
vt 0.2961 0.5022
vt 0.3289 0.6474
vt 0.5547 0.5000
vt 0.5223 0.0000
vt 0.5547 0.0000
vt 0.7611 0.5000
vt 0.6742 0.0000
vt 0.7611 0.0000
vt 0.6742 0.5000
vt 0.6417 0.0000
vt 0.6417 0.5000
vt 0.6852 0.6578
vt 0.7051 0.7614
vt 0.6852 0.7702
vt 0.6653 0.6490
vt 0.6852 0.7702
vt 0.6653 0.7614
vt 0.8806 0.0000
vt 0.9130 0.5000
vt 0.8806 0.5000
vt 0.9130 0.0000
vt 1.0000 0.5000
vt 0.7611 0.0000
vt 0.7936 0.5000
vt 0.7611 0.5000
vt 0.7936 0.0000
vt 0.7250 0.6578
vt 0.7051 0.7614
vt 0.7051 0.6490
vt 0.7250 0.6578
vt 0.7449 0.7614
vt 0.7250 0.7702
vt 0.5048 1.0000
vt 0.4813 0.5000
vt 0.5048 0.5000
vt 0.3917 0.0000
vt 0.5223 0.5000
vt 0.3917 0.5000
vt 0.6181 0.5000
vt 0.6417 1.0000
vt 0.6181 1.0000
vt 0.3917 0.5000
vt 0.2611 0.0000
vt 0.3917 0.0000
vt 0.7431 0.5195
vt 0.7691 0.6295
vt 0.7431 0.6490
vt 0.7172 0.6490
vt 0.6912 0.5000
vt 0.7172 0.5195
vt 0.6653 1.0000
vt 0.6417 0.5000
vt 0.6653 0.5000
vt 0.1306 0.5000
vt 0.0000 0.0000
vt 0.1306 0.0000
vt 0.5946 0.5000
vt 0.6181 1.0000
vt 0.5946 1.0000
vt 0.1306 0.0000
vt 0.2611 0.5000
vt 0.1306 0.5000
vt 0.6912 0.6490
vt 0.6912 0.5195
vt 0.7172 0.5195
vt 0.7431 0.6295
vt 0.7172 0.6490
vt 0.5105 0.7187
vt 0.1306 0.6500
vt 0.5946 0.5094
vt 0.1257 0.5000
vt 0.4791 0.5500
vt 0.4813 0.5642
vt 0.4813 0.5789
vt 0.4791 0.5934
vt 0.4749 0.6072
vt 0.4687 0.6198
vt 0.4609 0.6306
vt 0.4517 0.6393
vt 0.4306 0.6490
vt 0.4195 0.6496
vt 0.4086 0.6474
vt 0.3984 0.6423
vt 0.3892 0.6347
vt 0.3813 0.6248
vt 0.3752 0.6129
vt 0.3688 0.5854
vt 0.3752 0.5424
vt 0.3688 0.5707
vt 0.3709 0.5562
vt 0.3813 0.5298
vt 0.3892 0.5190
vt 0.3984 0.5103
vt 0.4195 0.5006
vt 0.4306 0.5000
vt 0.4414 0.5022
vt 0.4517 0.5073
vt 0.4609 0.5149
vt 0.4687 0.5248
vt 0.4749 0.5366
vt 0.3666 0.5562
vt 0.3688 0.5707
vt 0.3688 0.5854
vt 0.3666 0.5996
vt 0.3624 0.6129
vt 0.3562 0.6248
vt 0.3484 0.6347
vt 0.3392 0.6423
vt 0.3181 0.6496
vt 0.3070 0.6490
vt 0.2961 0.6455
vt 0.2859 0.6393
vt 0.2767 0.6306
vt 0.2689 0.6198
vt 0.2627 0.6072
vt 0.2563 0.5789
vt 0.2563 0.5642
vt 0.2585 0.5500
vt 0.2627 0.5366
vt 0.2689 0.5248
vt 0.2767 0.5149
vt 0.2859 0.5073
vt 0.3070 0.5000
vt 0.3181 0.5006
vt 0.3289 0.5041
vt 0.3392 0.5103
vt 0.3484 0.5190
vt 0.3562 0.5298
vt 0.3624 0.5424
vt 0.5223 0.5000
vt 0.7051 0.6490
vt 0.6852 0.6578
vt 1.0000 0.0000
vt 0.7250 0.7702
vt 0.7449 0.6490
vt 0.4813 1.0000
vt 0.5223 0.0000
vt 0.6417 0.5000
vt 0.2611 0.5000
vt 0.7691 0.5000
vt 0.6912 0.6295
vt 0.6417 1.0000
vt 0.0000 0.5000
vt 0.6181 0.5000
vt 0.2611 0.0000
vt 0.6653 0.6295
vt 0.7431 0.5000
vn 0.0980 -0.9952 0.0000
vn 0.2903 -0.9569 0.0000
vn 0.4714 -0.8819 0.0000
vn 0.6344 -0.7730 0.0000
vn 0.7730 -0.6344 0.0000
vn 0.8819 -0.4714 0.0000
vn 0.9569 -0.2903 -0.0000
vn 0.9952 -0.0980 -0.0000
vn 0.9952 0.0980 0.0000
vn 0.9569 0.2903 0.0000
vn 0.8819 0.4714 0.0000
vn 0.7730 0.6344 0.0000
vn 0.6344 0.7730 0.0000
vn 0.4714 0.8819 0.0000
vn 0.2903 0.9569 0.0000
vn 0.0980 0.9952 0.0000
vn -0.0980 0.9952 0.0000
vn -0.2903 0.9569 0.0000
vn -0.4714 0.8819 0.0000
vn -0.6344 0.7730 0.0000
vn -0.7730 0.6344 0.0000
vn -0.8819 0.4714 0.0000
vn -0.9569 0.2903 0.0000
vn -0.9952 0.0980 0.0000
vn -0.9952 -0.0980 -0.0000
vn -0.9569 -0.2903 -0.0000
vn -0.8819 -0.4714 0.0000
vn -0.7730 -0.6344 0.0000
vn -0.6344 -0.7730 0.0000
vn -0.4714 -0.8819 0.0000
vn -0.0000 0.0000 -1.0000
vn -0.2903 -0.9569 0.0000
vn -0.0980 -0.9952 0.0000
vn 0.0000 -0.0000 1.0000
vn -0.9659 0.0000 -0.2588
vn 0.2588 0.0000 -0.9659
vn 0.9659 0.0000 0.2588
vn -0.2588 0.0000 0.9659
vn 0.0000 -1.0000 -0.0000
vn 0.0000 1.0000 0.0000
vn -0.9659 0.0000 0.2588
vn -0.2588 0.0000 -0.9659
vn 0.9659 0.0000 -0.2588
vn 0.2588 -0.0000 0.9659
vn -0.0000 0.9659 -0.2588
vn 0.0000 -0.2588 -0.9659
vn 0.0000 -0.9659 0.2588
vn -0.0000 0.2588 0.9659
vn -1.0000 0.0000 0.0000
vn 1.0000 0.0000 0.0000
vn -0.0000 0.9659 0.2588
vn -0.0000 0.2588 -0.9659
vn 0.0000 -0.9659 -0.2588
vn 0.0000 -0.2588 0.9659
usemtl None
s off
f 2/1/1 3/2/1 1/3/1
f 4/4/2 5/5/2 3/2/2
f 6/6/3 7/7/3 5/5/3
f 8/8/4 9/9/4 7/10/4
f 10/11/5 11/12/5 9/9/5
f 12/13/6 13/14/6 11/12/6
f 14/15/7 15/16/7 13/14/7
f 16/17/8 17/18/8 15/16/8
f 18/19/9 19/20/9 17/18/9
f 20/21/10 21/22/10 19/20/10
f 22/23/11 23/24/11 21/22/11
f 24/25/12 25/26/12 23/24/12
f 26/27/13 27/28/13 25/26/13
f 28/29/14 29/30/14 27/31/14
f 30/32/15 31/33/15 29/30/15
f 32/34/16 33/35/16 31/33/16
f 34/36/17 35/37/17 33/35/17
f 36/38/18 37/39/18 35/37/18
f 38/40/19 39/41/19 37/39/19
f 40/42/20 41/43/20 39/44/20
f 42/45/21 43/46/21 41/43/21
f 44/47/22 45/48/22 43/46/22
f 46/49/23 47/50/23 45/48/23
f 48/51/24 49/52/24 47/50/24
f 50/53/25 51/54/25 49/52/25
f 52/55/26 53/56/26 51/54/26
f 54/57/27 55/58/27 53/56/27
f 56/59/28 57/60/28 55/58/28
f 58/61/29 59/62/29 57/60/29
f 60/63/30 61/64/30 59/65/30
f 38/66/31 22/67/31 54/68/31
f 62/69/32 63/70/32 61/64/32
f 64/71/33 1/3/33 63/70/33
f 31/72/34 47/73/34 15/74/34
f 66/75/35 67/76/35 65/77/35
f 68/78/36 71/79/36 67/80/36
f 72/81/37 69/82/37 71/79/37
f 70/83/38 65/77/38 69/82/38
f 71/84/39 65/85/39 67/86/39
f 68/87/40 70/88/40 72/89/40
f 74/90/41 75/91/41 73/92/41
f 76/93/42 79/94/42 75/91/42
f 80/95/43 77/96/43 79/97/43
f 78/98/44 73/92/44 77/96/44
f 75/99/39 77/100/39 73/101/39
f 76/102/40 78/103/40 80/104/40
f 82/105/45 83/106/45 81/107/45
f 84/108/46 87/109/46 83/110/46
f 88/111/47 85/112/47 87/113/47
f 86/114/48 81/115/48 85/116/48
f 87/117/49 81/118/49 83/119/49
f 84/120/50 86/121/50 88/122/50
f 90/123/51 91/124/51 89/125/51
f 92/126/52 95/127/52 91/128/52
f 96/129/53 93/130/53 95/131/53
f 94/132/54 89/133/54 93/134/54
f 95/135/49 89/125/49 91/136/49
f 92/137/50 94/138/50 96/139/50
f 2/1/1 4/4/1 3/2/1
f 4/4/2 6/6/2 5/5/2
f 6/6/3 8/140/3 7/7/3
f 8/8/4 10/11/4 9/9/4
f 10/11/5 12/13/5 11/12/5
f 12/13/6 14/15/6 13/14/6
f 14/15/7 16/17/7 15/16/7
f 16/17/8 18/19/8 17/18/8
f 18/19/9 20/21/9 19/20/9
f 20/21/10 22/23/10 21/22/10
f 22/23/11 24/25/11 23/24/11
f 24/25/12 26/27/12 25/26/12
f 26/27/13 28/141/13 27/28/13
f 28/29/14 30/32/14 29/30/14
f 30/32/15 32/34/15 31/33/15
f 32/34/16 34/36/16 33/35/16
f 34/36/17 36/38/17 35/37/17
f 36/38/18 38/40/18 37/39/18
f 38/40/19 40/142/19 39/41/19
f 40/42/20 42/45/20 41/43/20
f 42/45/21 44/47/21 43/46/21
f 44/47/22 46/49/22 45/48/22
f 46/49/23 48/51/23 47/50/23
f 48/51/24 50/53/24 49/52/24
f 50/53/25 52/55/25 51/54/25
f 52/55/26 54/57/26 53/56/26
f 54/57/27 56/59/27 55/58/27
f 56/59/28 58/61/28 57/60/28
f 58/61/29 60/143/29 59/62/29
f 60/63/30 62/69/30 61/64/30
f 6/144/31 4/145/31 2/146/31
f 2/146/31 64/147/31 6/144/31
f 62/148/31 60/149/31 58/150/31
f 58/150/31 56/151/31 54/68/31
f 54/68/31 52/152/31 50/153/31
f 50/153/31 48/154/31 46/155/31
f 46/155/31 44/156/31 38/66/31
f 42/157/31 40/158/31 38/66/31
f 38/66/31 36/159/31 30/160/31
f 34/161/31 32/162/31 30/160/31
f 30/160/31 28/163/31 26/164/31
f 26/164/31 24/165/31 22/67/31
f 22/67/31 20/166/31 18/167/31
f 18/167/31 16/168/31 14/169/31
f 14/169/31 12/170/31 10/171/31
f 10/171/31 8/172/31 6/144/31
f 6/144/31 64/147/31 62/148/31
f 62/148/31 58/150/31 54/68/31
f 54/68/31 50/153/31 38/66/31
f 44/156/31 42/157/31 38/66/31
f 36/159/31 34/161/31 30/160/31
f 30/160/31 26/164/31 38/66/31
f 22/67/31 18/167/31 14/169/31
f 14/169/31 10/171/31 22/67/31
f 6/144/31 62/148/31 54/68/31
f 50/153/31 46/155/31 38/66/31
f 38/66/31 26/164/31 22/67/31
f 22/67/31 10/171/31 6/144/31
f 6/144/31 54/68/31 22/67/31
f 62/69/32 64/71/32 63/70/32
f 64/71/33 2/1/33 1/3/33
f 63/173/34 1/174/34 3/175/34
f 3/175/34 5/176/34 7/177/34
f 7/177/34 9/178/34 15/74/34
f 11/179/34 13/180/34 15/74/34
f 15/74/34 17/181/34 19/182/34
f 19/182/34 21/183/34 15/74/34
f 23/184/34 25/185/34 31/72/34
f 27/186/34 29/187/34 31/72/34
f 31/72/34 33/188/34 35/189/34
f 35/189/34 37/190/34 39/191/34
f 39/191/34 41/192/34 43/193/34
f 43/193/34 45/194/34 47/73/34
f 47/73/34 49/195/34 51/196/34
f 51/196/34 53/197/34 55/198/34
f 55/198/34 57/199/34 63/173/34
f 59/200/34 61/201/34 63/173/34
f 63/173/34 3/175/34 15/74/34
f 9/178/34 11/179/34 15/74/34
f 15/74/34 21/183/34 23/184/34
f 25/185/34 27/186/34 31/72/34
f 31/72/34 35/189/34 47/73/34
f 39/191/34 43/193/34 47/73/34
f 47/73/34 51/196/34 63/173/34
f 57/199/34 59/200/34 63/173/34
f 3/175/34 7/177/34 15/74/34
f 15/74/34 23/184/34 31/72/34
f 35/189/34 39/191/34 47/73/34
f 51/196/34 55/198/34 63/173/34
f 63/173/34 15/74/34 47/73/34
f 66/75/35 68/202/35 67/76/35
f 68/78/36 72/81/36 71/79/36
f 72/81/37 70/83/37 69/82/37
f 70/83/38 66/75/38 65/77/38
f 71/84/39 69/203/39 65/85/39
f 68/87/40 66/204/40 70/88/40
f 74/90/41 76/93/41 75/91/41
f 76/93/42 80/205/42 79/94/42
f 80/95/43 78/98/43 77/96/43
f 78/98/44 74/90/44 73/92/44
f 75/99/39 79/206/39 77/100/39
f 76/102/40 74/207/40 78/103/40
f 82/105/45 84/208/45 83/106/45
f 84/108/46 88/209/46 87/109/46
f 88/111/47 86/210/47 85/112/47
f 86/114/48 82/211/48 81/115/48
f 87/117/49 85/212/49 81/118/49
f 84/120/50 82/213/50 86/121/50
f 90/123/51 92/214/51 91/124/51
f 92/126/52 96/215/52 95/127/52
f 96/129/53 94/216/53 93/130/53
f 94/132/54 90/217/54 89/133/54
f 95/135/49 93/218/49 89/125/49
f 92/137/50 90/219/50 94/138/50
